<svg width="123" height="51" viewBox="0 0 123 51" fill="none" xmlns="http://www.w3.org/2000/svg">
<g id="Group 9">
<path id="Vector" d="M41.8171 8.35437L41.5087 8.49127C39.7279 6.84807 37.5816 5.53535 35.0703 4.55385C32.5814 3.57234 29.8416 3.08142 26.8507 3.08142C23.9736 3.08142 21.3367 3.53812 18.9391 4.45117C16.5419 5.34141 14.4755 6.64235 12.7403 8.35437C11.0279 10.0664 9.6924 12.1663 8.73335 14.6545C7.77434 17.1426 7.29486 19.9731 7.29486 23.1457C7.29486 26.6382 7.75153 29.9025 8.6649 32.9383C9.57795 35.9513 10.9367 38.5649 12.7403 40.7793C14.5439 42.9933 16.7929 44.7395 19.4871 46.018C22.2042 47.2733 25.3665 47.9012 28.9741 47.9012C30.2754 47.9012 31.5768 47.7639 32.8784 47.4901C34.1797 47.2163 35.424 46.8166 36.6112 46.2918C37.8216 45.7438 38.9518 45.0936 40.0021 44.3402C41.0752 43.5641 42.0453 42.6853 42.9131 41.7037L43.2899 41.9433L40.55 48.9283C38.8373 49.59 36.9424 50.0923 34.8646 50.4346C32.81 50.8 30.7322 50.9826 28.6315 50.9826C24.4075 50.9826 20.5374 50.3776 17.0214 49.1679C13.5282 47.9354 10.5142 46.2006 7.97984 43.9634C5.46829 41.7266 3.50475 39.0445 2.08915 35.917C0.696394 32.7672 0 29.2747 0 25.44C0 23.2716 0.273985 21.1371 0.821959 19.0372C1.39275 16.9373 2.21471 14.9397 3.28784 13.0451C4.36094 11.1506 5.6852 9.41573 7.26063 7.84098C8.83603 6.24305 10.6283 4.86188 12.6376 3.69784C14.6698 2.5338 16.8959 1.63216 19.316 0.992914C21.7589 0.330853 24.3961 0 27.2272 0C31.6338 0 35.721 0.673469 39.4883 2.02005L41.8171 8.35437Z" fill="#ABC337"/>
<path id="Vector_2" d="M39.0715 17.0519C38.7336 17.0458 38.4038 17.1168 38.0797 17.3136L38.0801 17.3128C37.9203 17.4098 37.7524 17.5506 37.5931 17.5849C37.0715 17.6965 36.6319 17.9934 36.1356 18.151C35.8996 18.2259 35.7858 18.3706 35.793 18.6152C35.696 18.7906 35.5431 18.9004 35.3655 18.9842C35.2083 19.0584 35.0582 19.1429 35.0115 19.3297C35.0108 19.3304 35.0097 19.3308 35.009 19.3315C34.8239 19.5472 34.6293 19.7554 34.4407 20.0777L40.2274 18.1792C39.9771 17.941 39.7172 17.7396 40.0067 17.3745C39.7472 17.3923 39.5635 17.5428 39.345 17.5089C39.4691 17.3246 39.7343 17.3635 39.8762 17.1824C39.6024 17.1075 39.3347 17.0565 39.0715 17.0519ZM42.1772 18.2038C41.9333 18.2188 41.6988 18.238 41.4962 18.4134C41.256 18.6199 40.9857 18.6787 40.713 18.4487C40.5073 18.2751 40.3069 18.3082 40.0734 18.4209C39.5347 18.6822 38.9821 18.9161 38.4355 19.1607C37.1677 19.7311 35.9003 20.3019 34.6332 20.8738C34.2278 21.006 34.21 21.0431 34.3031 21.4464C34.3712 21.7408 34.4942 22.051 34.1483 22.2706C34.1105 22.2877 34.0785 22.3156 34.0564 22.3505C34.0339 22.3858 34.0225 22.4264 34.0228 22.4681C34.0225 22.4685 34.0221 22.4685 34.0218 22.4685C33.9323 22.7819 34.0075 23.0867 34.0642 23.3944C34.1006 23.5894 34.1911 23.5819 34.3409 23.511C34.6799 23.3495 35.0236 23.1979 35.3673 23.0468C36.4533 22.5694 37.5392 22.0927 38.6259 21.6161C38.6562 21.6171 38.6865 21.6143 38.7165 21.6075C38.6812 21.6264 38.6484 21.6485 38.6309 21.6899L37.5168 22.3426L35.839 23.1972C35.3584 23.2799 34.9416 23.5395 34.486 23.6867C34.2043 23.778 34.2603 23.876 34.4525 24.0026C34.6321 24.219 34.897 24.2725 35.1455 24.3566C35.1459 24.3566 35.1462 24.3563 35.1466 24.3563C35.3391 24.4465 35.5306 24.5395 35.7252 24.6255C35.9064 24.706 36.0746 24.7338 36.1848 24.5042C36.2465 24.3741 36.3591 24.3552 36.4943 24.4169C36.7042 24.5149 36.9271 24.5178 37.152 24.4789C37.1524 24.4789 37.1528 24.4793 37.1531 24.4793L37.1542 24.4804L37.156 24.4796C37.2412 24.4868 37.3253 24.4878 37.3995 24.4336C37.5011 24.4336 37.6037 24.4258 37.7043 24.4358C38.1835 24.485 38.6822 24.3221 39.1436 24.577C39.2313 24.6251 39.3129 24.5295 39.3913 24.49C40.2228 24.0643 41.0531 23.6372 41.8824 23.2079C42.984 22.6403 44.0853 22.0728 45.1862 21.5055C45.2807 21.4567 45.4957 21.4353 45.3082 21.2446V21.2428C45.1795 20.9839 45.0643 20.7201 45.0187 20.4317C45.019 20.4313 45.0194 20.431 45.0198 20.4306C45.0051 20.2156 44.9317 20.0185 44.839 19.8263C44.7584 19.6612 44.6679 19.6156 44.48 19.699C44.045 19.8926 43.599 20.0695 43.1537 20.2288C42.7081 20.3882 42.2941 20.6385 41.815 20.7034C41.8146 20.7034 41.8143 20.7034 41.8136 20.703C41.8093 20.6299 41.8759 20.6381 41.9159 20.6157L44.2796 19.3001C44.2882 19.0794 44.209 18.8808 44.1249 18.6844C44.0115 18.3974 43.8126 18.3136 43.5252 18.4284C43.3306 18.509 43.1231 18.5546 42.9124 18.5628V18.5621L42.9109 18.5624L42.7473 18.5493C42.517 18.5001 42.3722 18.3104 42.1772 18.2038ZM45.6561 21.9362C45.6027 21.9394 45.5421 21.9619 45.4707 21.9993C44.5991 22.4564 43.7199 22.8981 42.8432 23.3448C41.8132 23.8707 40.7814 24.3909 39.755 24.9224C39.6901 24.9556 39.5086 24.9485 39.5953 25.1103C39.7087 25.321 39.6741 25.5435 39.6801 25.7642L39.6798 25.7653C39.6773 25.8736 39.6751 25.9817 39.673 26.0897C39.6972 26.263 39.7607 26.4284 39.8587 26.5731L39.8598 26.5735L39.8587 26.5738L39.9842 26.7403L40.278 27.1079C40.3279 27.4498 40.5023 27.4537 40.7964 27.3532C41.862 26.9881 42.9384 26.6526 44.0108 26.3061L44.0725 26.3699C44.0728 26.3699 44.0732 26.3699 44.0735 26.3696L42.9045 26.9225C42.7098 26.9746 42.5334 27.0655 42.3583 27.1642C42.3326 27.1614 42.307 27.1657 42.2835 27.1767C42.2603 27.1874 42.2403 27.2045 42.226 27.2263C41.7619 27.3988 41.3094 27.602 40.872 27.8345C40.8649 27.8309 40.8566 27.8306 40.8492 27.8331C40.8417 27.8356 40.8353 27.8409 40.8317 27.848C40.7372 27.8584 40.6488 27.8983 40.5789 27.9621C40.4163 27.9985 40.2338 28.0516 40.2424 28.2452C40.2641 28.7294 40.0958 29.1697 39.9711 29.6214C39.9325 29.6881 39.9151 29.7654 39.9222 29.8424C39.929 29.9194 39.9593 29.9922 40.0088 30.0514C40.104 30.1654 40.2306 30.031 40.3351 29.9929C41.9226 29.4175 43.5088 28.8385 45.0936 28.2559C45.3028 28.1789 45.5716 28.145 45.6989 27.9949C45.8358 27.8331 45.6508 27.5725 45.6651 27.3503C45.6829 27.2552 45.7011 27.16 45.7189 27.0648C45.8141 26.7717 46.048 26.5557 46.167 26.2761L46.7104 25.521C46.8259 25.2736 47.109 25.1959 47.2594 24.983L47.2523 24.9855L47.2576 24.9827C47.581 24.7841 47.7193 24.4483 47.9471 24.0985L46.4769 24.5502C46.3934 24.5559 46.3114 24.5681 46.2301 24.5837C46.2733 24.5588 46.3111 24.5256 46.3414 24.4864C46.4319 24.4429 46.5232 24.4005 46.613 24.3559C47.0865 24.1196 47.606 23.9816 48.0516 23.686C48.0395 23.6839 48.0288 23.6775 48.0206 23.6682C48.0309 23.6739 48.0409 23.6796 48.0516 23.686C48.0944 23.557 48.0783 23.4258 48.0541 23.2981L48.0548 23.2999C48.0202 23.1188 47.9407 23.0261 47.7454 23.1566C47.622 23.245 47.4798 23.3035 47.33 23.327C47.3297 23.3274 47.3293 23.3277 47.3286 23.3277C47.3286 23.3274 47.3289 23.327 47.3289 23.3263C47.0576 23.306 46.7774 23.3113 46.5913 23.0568H46.592C46.505 22.937 46.412 23.0232 46.3236 23.0585C45.6397 23.3334 44.9559 23.6087 44.2721 23.8842C44.2208 23.8889 44.1719 23.9006 44.1238 23.916C44.153 23.8875 44.1787 23.8554 44.1962 23.8154C44.6907 23.5591 45.1845 23.3017 45.6779 23.0436C45.8932 22.9309 46.2448 22.85 46.2854 22.691C46.3389 22.4849 46.0048 22.3156 45.8833 22.0991C45.8152 21.9786 45.7453 21.9309 45.6561 21.9362ZM45.7456 28.2937C45.7157 28.2916 45.6775 28.3001 45.6283 28.3204C43.9013 29.0331 42.1726 29.7419 40.4424 30.4464C40.3101 30.5016 40.2816 30.5498 40.3493 30.687C40.5147 31.0211 40.6666 31.3623 40.7518 31.7284C40.7618 31.829 40.7864 31.9313 40.78 32.0308C40.7643 32.2614 40.806 32.3324 41.0567 32.2208C42.2036 31.7102 43.363 31.2282 44.5096 30.7177C44.9973 30.5002 45.3299 30.1137 45.5339 29.6185C45.5335 29.6185 45.5328 29.6189 45.5324 29.6189C45.5328 29.6185 45.5328 29.6185 45.5331 29.6182C45.8291 29.2798 45.875 28.8752 45.8426 28.4502C45.8351 28.3536 45.8109 28.298 45.7456 28.2937ZM47.6498 28.9262C47.5118 28.9272 47.4216 29.0699 47.3578 29.1971C47.3004 29.3109 47.2591 29.4324 47.2109 29.5504L47.2102 29.5508C47.1257 29.7258 47.0576 29.882 46.7888 29.8392C46.5999 29.8093 46.3403 29.9594 46.3588 30.1383C46.3966 30.5123 46.146 30.8325 46.223 31.1976C46.2522 31.2247 46.2811 31.235 46.3093 31.2357C46.2754 31.2564 46.2433 31.2814 46.2162 31.3145C46.1688 31.4963 46.1168 31.6771 46.167 31.8675C46.1674 31.8675 46.1678 31.8675 46.1681 31.8675C46.3154 32.1919 46.4262 32.2333 46.7446 32.1424C47.13 32.0318 47.1286 31.7031 47.1924 31.4069C47.2509 31.255 47.2936 31.1017 47.2762 30.9209L46.7189 31.0899L46.7186 31.0913C46.6747 31.1077 46.6248 31.0953 46.581 31.1134C46.6095 31.091 46.6344 31.0642 46.6537 31.0304C46.7485 30.9751 46.8384 30.9077 46.9389 30.8657C47.6363 30.5758 47.7493 29.9647 47.8013 29.3191C47.8045 29.1807 47.9004 28.9875 47.7118 28.9351C47.6915 28.929 47.6705 28.9262 47.6498 28.9262ZM44.5074 30.9523C43.3341 31.5577 42.2132 32.1488 41.0788 32.7121C40.7871 32.8572 40.7358 33.0151 40.8859 33.2764C40.9497 33.5128 41.1155 33.6615 41.3191 33.7784L41.3198 33.7788C41.3954 33.88 41.5016 33.9193 41.6217 33.9324C42.0464 34.1831 42.5537 33.9567 42.7872 33.4123C43.0846 33.244 43.3798 33.069 43.6792 32.9035C43.8718 32.7976 44.0072 32.6664 43.9616 32.4251C44.0186 32.2664 44.224 32.2265 44.2629 32.0532C44.2279 31.6799 44.5427 31.3726 44.5074 30.953V30.9523Z" fill="#ABC337"/>
<path id="Vector_3" d="M61.5328 13.9141L61.475 13.9398C61.1413 13.6317 60.7388 13.3857 60.2678 13.2018C59.8011 13.0174 59.2874 12.9255 58.7266 12.9255C58.1872 12.9255 57.693 13.011 57.2434 13.1822C56.7939 13.3494 56.4063 13.5932 56.0812 13.9141C55.76 14.2353 55.5097 14.6289 55.3296 15.0956C55.15 15.5619 55.0601 16.0928 55.0601 16.6875C55.0601 17.3424 55.1457 17.9546 55.3168 18.5236C55.4883 19.0887 55.7428 19.5789 56.0812 19.9939C56.4192 20.4089 56.8409 20.7365 57.3461 20.9761C57.8556 21.2114 58.4485 21.329 59.1248 21.329C59.369 21.329 59.6129 21.3034 59.8568 21.252C60.101 21.2007 60.3341 21.1258 60.557 21.0274C60.7837 20.9247 60.9958 20.8028 61.1926 20.6616C61.3937 20.5162 61.5759 20.3511 61.7385 20.1671L61.8091 20.2121L61.2953 21.5219C60.9741 21.646 60.619 21.7401 60.2293 21.8043C59.8439 21.8727 59.4546 21.907 59.0606 21.907C58.2688 21.907 57.5429 21.7936 56.8837 21.5668C56.2288 21.3355 55.6637 21.0103 55.1885 20.591C54.7175 20.1714 54.3492 19.6687 54.084 19.0822C53.823 18.4915 53.6921 17.8369 53.6921 17.1178C53.6921 16.711 53.7435 16.311 53.8465 15.917C53.9535 15.5234 54.1075 15.1491 54.3086 14.7936C54.51 14.4385 54.7581 14.1134 55.0537 13.8178C55.3489 13.5184 55.6851 13.2595 56.0619 13.041C56.4427 12.8228 56.8602 12.6538 57.314 12.534C57.7722 12.4099 58.2667 12.3479 58.7975 12.3479C59.6236 12.3479 60.3897 12.4741 61.0964 12.7265L61.5328 13.9141Z" fill="#ABC337"/>
<path id="Vector_4" d="M72.7707 21.7079V21.6823C72.7793 21.6609 72.7857 21.6288 72.79 21.586C72.7942 21.5432 72.7964 21.5047 72.7964 21.4705C72.7964 21.3375 72.7771 21.1921 72.7386 21.0338C72.7044 20.8712 72.636 20.6701 72.5329 20.4302L71.7561 18.6843C71.5165 18.6757 71.1974 18.6715 70.7992 18.6715C70.4013 18.6715 69.971 18.6715 69.5085 18.6715C69.1702 18.6715 68.8429 18.6715 68.526 18.6715C68.2137 18.6715 67.9309 18.6757 67.6785 18.6843L66.9398 20.3788C66.8756 20.5375 66.8072 20.7108 66.7345 20.899C66.6617 21.0872 66.6254 21.2776 66.6254 21.4705C66.6254 21.5261 66.6296 21.5732 66.6382 21.6117C66.6467 21.6459 66.6553 21.6694 66.6639 21.6823V21.7079H65.3536V21.6823C65.431 21.601 65.5273 21.4577 65.6428 21.252C65.7583 21.0423 65.8845 20.7813 66.0218 20.4687L69.7011 12.3093H70.2148L73.702 20.1542C73.7832 20.3382 73.8667 20.5182 73.9522 20.6936C74.0421 20.8648 74.1255 21.0188 74.2025 21.1557C74.2799 21.2926 74.3483 21.4085 74.4082 21.5026C74.4681 21.5967 74.5088 21.6566 74.5302 21.6823V21.7079H72.7707ZM68.6094 18.1192C68.8579 18.1192 69.1124 18.1192 69.3738 18.1192C69.6347 18.1149 69.8897 18.1128 70.1378 18.1128C70.3906 18.1085 70.6323 18.1064 70.8633 18.1064C71.0947 18.1021 71.3043 18.0978 71.4929 18.0935L69.6882 14.0167L67.916 18.1192H68.6094Z" fill="#ABC337"/>
<path id="Vector_5" d="M79.9692 17.6311C80.3888 17.7081 80.7718 17.7166 81.1186 17.6568C81.4698 17.5926 81.7693 17.46 82.0178 17.2589C82.2702 17.0535 82.4649 16.7772 82.6021 16.4307C82.7433 16.0841 82.8139 15.6602 82.8139 15.1597C82.8139 14.8128 82.7775 14.4983 82.7048 14.216C82.6321 13.929 82.523 13.6872 82.3772 13.4904C82.236 13.2894 82.0563 13.135 81.8378 13.028C81.6196 12.9168 81.3646 12.8612 81.0737 12.8612C80.8898 12.8612 80.729 12.8697 80.5921 12.8869C80.4552 12.8997 80.3396 12.9147 80.2452 12.9318C80.1339 12.9532 80.0419 12.9767 79.9692 13.0024V17.6311ZM78.6141 12.5018C78.7 12.5104 78.7898 12.5189 78.884 12.5275C78.9653 12.536 79.0551 12.5425 79.1535 12.5467C79.2565 12.5467 79.3613 12.5467 79.4683 12.5467C79.6352 12.5467 79.8601 12.5275 80.1425 12.489C80.4295 12.4462 80.7931 12.4248 81.2342 12.4248C81.6452 12.4248 82.0242 12.4847 82.3707 12.6045C82.7219 12.7243 83.0257 12.8997 83.2827 13.1307C83.5394 13.3621 83.7387 13.6445 83.8799 13.9782C84.0254 14.3079 84.0981 14.6844 84.0981 15.1083C84.0981 15.6773 83.9847 16.1697 83.758 16.5847C83.5309 17 83.2271 17.3359 82.846 17.5926C82.4649 17.8496 82.0263 18.025 81.5297 18.1192C81.0331 18.209 80.5129 18.2133 79.9692 18.132V19.1976C79.9692 19.5613 79.9735 19.8804 79.982 20.1542C79.9949 20.4237 80.0077 20.6572 80.0206 20.854C80.0377 21.0508 80.0569 21.2156 80.0783 21.3482C80.104 21.4812 80.1296 21.5924 80.1553 21.6822V21.7079H78.6141V21.6822C78.6401 21.5924 78.6636 21.4812 78.685 21.3482C78.7107 21.2156 78.7321 21.0508 78.7492 20.854C78.7663 20.6572 78.7791 20.4237 78.7877 20.1542C78.7963 19.8804 78.8005 19.5613 78.8005 19.1976V15.0181C78.8005 14.6545 78.7963 14.3379 78.7877 14.068C78.7791 13.7942 78.7663 13.5589 78.7492 13.3621C78.7321 13.1607 78.7107 12.9938 78.685 12.8612C78.6636 12.7286 78.6401 12.6173 78.6141 12.5275V12.5018Z" fill="#ABC337"/>
<path id="Vector_6" d="M88.7025 21.6821C88.7281 21.5923 88.7517 21.4811 88.773 21.3481C88.7944 21.2155 88.8137 21.0507 88.8308 20.8539C88.8479 20.6571 88.8608 20.4236 88.8693 20.1541C88.8779 19.8803 88.8821 19.5612 88.8821 19.1975V15.018C88.8821 14.6544 88.8779 14.3378 88.8693 14.0679C88.8608 13.7941 88.8479 13.5588 88.8308 13.362C88.8137 13.1606 88.7944 12.9937 88.773 12.8611C88.7517 12.7285 88.7281 12.6172 88.7025 12.5274V12.5017H90.2373V12.5274C90.2116 12.6172 90.1856 12.7285 90.1599 12.8611C90.1385 12.9937 90.1193 13.1606 90.1022 13.362C90.0893 13.5588 90.0765 13.7941 90.0637 14.0679C90.0551 14.3378 90.0508 14.6544 90.0508 15.018V19.1975C90.0508 19.5612 90.0551 19.8803 90.0637 20.1541C90.0765 20.4236 90.0893 20.6571 90.1022 20.8539C90.1193 21.0507 90.1385 21.2155 90.1599 21.3481C90.1856 21.4811 90.2116 21.5923 90.2373 21.6821V21.7078H88.7025V21.6821Z" fill="#ABC337"/>
<path id="Vector_7" d="M97.8466 13.0665C97.3414 13.0665 96.8858 13.09 96.479 13.1371C96.0722 13.1799 95.7214 13.2273 95.4258 13.2786C95.0832 13.3428 94.7773 13.4134 94.5074 13.4904L94.6939 12.4504C94.7452 12.4547 94.8223 12.459 94.9249 12.4633C95.0276 12.4676 95.141 12.4718 95.2654 12.4761C95.3938 12.4804 95.5264 12.4847 95.6633 12.4889C95.8048 12.4889 95.9375 12.4911 96.0615 12.4954C96.1856 12.4954 96.295 12.4975 96.3892 12.5018C96.4876 12.5018 96.5582 12.5018 96.6009 12.5018H100.268C100.311 12.5018 100.379 12.5018 100.473 12.5018C100.572 12.4975 100.683 12.4954 100.807 12.4954C100.931 12.4911 101.062 12.4889 101.199 12.4889C101.34 12.4847 101.473 12.4804 101.597 12.4761C101.725 12.4718 101.841 12.4676 101.944 12.4633C102.046 12.459 102.123 12.4547 102.175 12.4504L102.361 13.4904C102.087 13.4134 101.779 13.3428 101.436 13.2786C101.141 13.2273 100.79 13.1799 100.383 13.1371C99.9765 13.09 99.5205 13.0665 99.0153 13.0665V19.1976C99.0153 19.5613 99.0196 19.8803 99.0285 20.1542C99.0413 20.4237 99.0542 20.6572 99.067 20.854C99.0841 21.0508 99.1034 21.2155 99.1248 21.3481C99.1504 21.4811 99.1761 21.5924 99.2018 21.6822V21.7079H97.6669V21.6822C97.6926 21.5924 97.7161 21.4811 97.7375 21.3481C97.7589 21.2155 97.7782 21.0508 97.7953 20.854C97.8124 20.6572 97.8252 20.4237 97.8338 20.1542C97.8423 19.8803 97.8466 19.5613 97.8466 19.1976V13.0665Z" fill="#ABC337"/>
<path id="Vector_8" d="M112.289 21.7079V21.6823C112.297 21.6609 112.304 21.6288 112.308 21.586C112.312 21.5432 112.315 21.5047 112.315 21.4705C112.315 21.3375 112.295 21.1921 112.257 21.0338C112.222 20.8712 112.154 20.6701 112.051 20.4302L111.274 18.6843C111.034 18.6757 110.716 18.6715 110.317 18.6715C109.919 18.6715 109.489 18.6715 109.027 18.6715C108.688 18.6715 108.361 18.6715 108.044 18.6715C107.731 18.6715 107.449 18.6757 107.196 18.6843L106.458 20.3788C106.394 20.5375 106.325 20.7108 106.253 20.899C106.18 21.0872 106.143 21.2776 106.143 21.4705C106.143 21.5261 106.147 21.5732 106.156 21.6117C106.165 21.6459 106.173 21.6694 106.182 21.6823V21.7079H104.872V21.6823C104.949 21.601 105.045 21.4577 105.161 21.252C105.276 21.0423 105.403 20.7813 105.54 20.4687L109.219 12.3093H109.733L113.22 20.1542C113.301 20.3382 113.385 20.5182 113.47 20.6936C113.56 20.8648 113.644 21.0188 113.721 21.1557C113.798 21.2926 113.866 21.4085 113.926 21.5026C113.986 21.5967 114.027 21.6566 114.048 21.6823V21.7079H112.289ZM108.128 18.1192C108.376 18.1192 108.631 18.1192 108.892 18.1192C109.153 18.1149 109.407 18.1128 109.656 18.1128C109.908 18.1085 110.15 18.1064 110.382 18.1064C110.613 18.1021 110.823 18.0978 111.011 18.0935L109.206 14.0167L107.434 18.1192H108.128Z" fill="#ABC337"/>
<path id="Vector_9" d="M119.488 21.1427C119.993 21.1427 120.457 21.1213 120.881 21.0785C121.305 21.0358 121.675 20.9866 121.992 20.9309C122.36 20.8711 122.696 20.8005 123 20.7192L122.814 21.7591C122.763 21.7549 122.685 21.7506 122.582 21.7463C122.48 21.742 122.364 21.7378 122.236 21.7335C122.112 21.7292 121.979 21.7249 121.838 21.7206C121.701 21.7206 121.57 21.7185 121.446 21.7142C121.322 21.7142 121.211 21.7121 121.112 21.7078C121.018 21.7078 120.949 21.7078 120.906 21.7078H118.132V21.6821C118.158 21.5923 118.182 21.4811 118.203 21.3481C118.229 21.2155 118.25 21.0507 118.267 20.8539C118.284 20.6571 118.297 20.4236 118.306 20.1541C118.314 19.8803 118.318 19.5612 118.318 19.1975V15.018C118.318 14.6544 118.314 14.3378 118.306 14.0679C118.297 13.7941 118.284 13.5588 118.267 13.362C118.25 13.1606 118.229 12.9937 118.203 12.8611C118.182 12.7285 118.158 12.6172 118.132 12.5274V12.5017H119.674V12.5274C119.648 12.6172 119.622 12.7285 119.597 12.8611C119.575 12.9937 119.556 13.1606 119.539 13.362C119.526 13.5588 119.513 13.7941 119.5 14.0679C119.492 14.3378 119.488 14.6544 119.488 15.018V21.1427Z" fill="#ABC337"/>
<path id="Vector_10" d="M60.4543 38.1428V38.1171C60.4629 38.0957 60.4693 38.0636 60.4736 38.0208C60.4778 37.9781 60.48 37.9395 60.48 37.9053C60.48 37.7723 60.4607 37.6269 60.4219 37.4686C60.3876 37.306 60.3192 37.1049 60.2165 36.865L59.4396 35.1191C59.1997 35.1105 58.881 35.1063 58.4827 35.1063C58.0845 35.1063 57.6542 35.1063 57.1921 35.1063C56.8538 35.1063 56.5261 35.1063 56.2096 35.1063C55.8969 35.1063 55.6145 35.1105 55.3618 35.1191L54.6234 36.8136C54.5592 36.9723 54.4908 37.1456 54.418 37.3338C54.345 37.5221 54.3086 37.7124 54.3086 37.9053C54.3086 37.9609 54.3129 38.008 54.3214 38.0465C54.33 38.0807 54.3385 38.1043 54.3471 38.1171V38.1428H53.0372V38.1171C53.1142 38.0358 53.2105 37.8925 53.3264 37.6868C53.4419 37.4771 53.5681 37.2162 53.705 36.9038L57.3847 28.7441H57.8984L61.3852 36.589C61.4665 36.773 61.5503 36.953 61.6358 37.1285C61.7257 37.2996 61.8091 37.4536 61.8861 37.5905C61.9631 37.7274 62.0316 37.8433 62.0918 37.9374C62.1517 38.0315 62.1923 38.0914 62.2137 38.1171V38.1428H60.4543ZM56.293 34.554C56.5411 34.554 56.796 34.554 57.057 34.554C57.3183 34.5497 57.5729 34.5476 57.8214 34.5476C58.0738 34.5433 58.3159 34.5412 58.5469 34.5412C58.7779 34.5369 58.9879 34.5326 59.1762 34.5283L57.3718 30.4515L55.5996 34.554H56.293Z" fill="#ABC337"/>
<path id="Vector_11" d="M67.6528 35.6325C67.6528 35.9965 67.6571 36.3152 67.6656 36.589C67.6785 36.8586 67.6913 37.0921 67.7041 37.2889C67.7213 37.4857 67.7405 37.6504 67.7619 37.7834C67.7876 37.916 67.8132 38.0272 67.8389 38.1171V38.1428H66.2977V38.1171C66.3233 38.0272 66.3469 37.916 66.3683 37.7834C66.3939 37.6504 66.4153 37.4857 66.4324 37.2889C66.4495 37.0921 66.4624 36.8586 66.4709 36.589C66.4795 36.3152 66.4838 35.9965 66.4838 35.6325V31.4533C66.4838 31.0893 66.4795 30.7728 66.4709 30.5032C66.4624 30.2291 66.4495 29.9937 66.4324 29.7969C66.4153 29.5959 66.3939 29.4287 66.3683 29.296C66.3469 29.1634 66.3233 29.0522 66.2977 28.9623V28.9367C66.6531 28.9367 67.0125 28.9367 67.3765 28.9367C67.7405 28.9324 68.0935 28.9302 68.4361 28.9302C68.7787 28.926 69.1038 28.9217 69.4122 28.9174C69.7203 28.9088 69.9987 28.9024 70.2469 28.8982C70.4954 28.8896 70.705 28.881 70.8761 28.8725C71.0476 28.8597 71.1695 28.8468 71.2423 28.834L70.9278 29.6878C70.7863 29.6493 70.6216 29.6151 70.4333 29.5848C70.2704 29.5591 70.0714 29.5356 69.8361 29.5142C69.6048 29.4886 69.3374 29.4757 69.0333 29.4757C68.9306 29.4757 68.8022 29.48 68.6479 29.4886C68.4938 29.4928 68.342 29.4992 68.1922 29.5078C68.0207 29.5164 67.841 29.5249 67.6528 29.5335V32.7757C68.0935 32.7714 68.4981 32.7586 68.8664 32.7372C69.2343 32.7158 69.5513 32.6944 69.8169 32.673C70.1249 32.6473 70.4034 32.6174 70.6515 32.5832L70.459 33.514C70.1378 33.4755 69.8126 33.4392 69.4828 33.4049C69.2001 33.375 68.8964 33.3493 68.5709 33.3279C68.2457 33.3023 67.9394 33.2894 67.6528 33.2894V35.6325Z" fill="#ABC337"/>
<path id="Vector_12" d="M77.0667 35.6325C77.0667 35.9965 77.071 36.3152 77.0795 36.589C77.0924 36.8585 77.1052 37.0921 77.118 37.2889C77.1351 37.4857 77.1544 37.6504 77.1758 37.7834C77.2014 37.916 77.2271 38.0272 77.2528 38.1171V38.1427H75.7115V38.1171C75.7372 38.0272 75.7607 37.916 75.7821 37.7834C75.8078 37.6504 75.8271 37.4857 75.8399 37.2889C75.857 37.0921 75.8698 36.8585 75.8788 36.589C75.8916 36.3195 75.898 36.0007 75.898 35.6325V31.4533C75.898 31.0893 75.8916 30.7727 75.8788 30.5032C75.8698 30.229 75.857 29.9937 75.8399 29.7969C75.8271 29.6001 75.8078 29.435 75.7821 29.3024C75.7607 29.1655 75.7372 29.0521 75.7115 28.9623V28.9366L75.9814 28.9623C76.0627 28.9709 76.1526 28.9773 76.251 28.9816C76.3536 28.9816 76.4588 28.9816 76.5658 28.9816C76.7326 28.9816 76.9572 28.9623 77.24 28.9238C77.527 28.881 77.8906 28.8596 78.3316 28.8596C78.7427 28.8596 79.1213 28.9152 79.4682 29.0265C79.8194 29.1377 80.1231 29.3003 80.3802 29.5142C80.6369 29.7285 80.8362 29.9916 80.9774 30.3039C81.1228 30.6123 81.1956 30.9631 81.1956 31.3567C81.1956 31.6651 81.1549 31.9517 81.0736 32.217C80.9966 32.4783 80.8854 32.7158 80.7396 32.9297C80.5984 33.1436 80.4273 33.3343 80.2258 33.5012C80.0247 33.6638 79.8001 33.8006 79.5516 33.9119L81.8056 37.0771C81.9168 37.2354 82.0198 37.3723 82.114 37.4878C82.2124 37.6033 82.3043 37.7039 82.3899 37.7898C82.4797 37.8711 82.5657 37.9395 82.647 37.9951C82.7282 38.0465 82.8117 38.0871 82.8972 38.1171V38.1427H81.0415C81.0287 38.0614 80.9859 37.9545 80.9132 37.8219C80.8447 37.6846 80.7631 37.5498 80.669 37.4172L78.3958 34.2139C78.2974 34.2224 78.199 34.231 78.1006 34.2395C78.0018 34.2438 77.9013 34.2459 77.7986 34.2459C77.6788 34.2459 77.5569 34.2417 77.4325 34.2331C77.3127 34.2246 77.1908 34.2096 77.0667 34.1882V35.6325ZM77.0667 33.6873C77.1822 33.713 77.2999 33.7322 77.4196 33.745C77.5398 33.7536 77.6553 33.7579 77.7665 33.7579C78.0878 33.7579 78.3808 33.7108 78.6464 33.6167C78.9117 33.5183 79.1363 33.3707 79.3206 33.1735C79.5089 32.9767 79.6543 32.7329 79.7574 32.4419C79.86 32.1464 79.9114 31.802 79.9114 31.4084C79.9114 31.0872 79.875 30.7962 79.8023 30.5353C79.7292 30.2739 79.6201 30.0536 79.4746 29.8739C79.3334 29.69 79.1534 29.5484 78.9352 29.45C78.717 29.3473 78.4621 29.296 78.1712 29.296C77.8756 29.296 77.6403 29.311 77.4646 29.3409C77.2892 29.3709 77.1565 29.403 77.0667 29.4372V33.6873Z" fill="#ABC337"/>
<path id="Vector_13" d="M86.8273 38.1172C86.8529 38.0274 86.8765 37.9161 86.8982 37.7835C86.9196 37.6505 86.9389 37.4858 86.956 37.289C86.9731 37.0922 86.9859 36.8587 86.9945 36.5891C87.003 36.3153 87.0073 35.9966 87.0073 35.6326V31.4534C87.0073 31.0894 87.003 30.7729 86.9945 30.5033C86.9859 30.2292 86.9731 29.9939 86.956 29.7971C86.9389 29.596 86.9196 29.4288 86.8982 29.2961C86.8765 29.1635 86.8529 29.0523 86.8273 28.9624V28.9368H88.3621V28.9624C88.3364 29.0523 88.3108 29.1635 88.2851 29.2961C88.2637 29.4288 88.2444 29.596 88.2273 29.7971C88.2145 29.9939 88.2017 30.2292 88.1888 30.5033C88.1803 30.7729 88.176 31.0894 88.176 31.4534V35.6326C88.176 35.9966 88.1803 36.3153 88.1888 36.5891C88.2017 36.8587 88.2145 37.0922 88.2273 37.289C88.2444 37.4858 88.2637 37.6505 88.2851 37.7835C88.3108 37.9161 88.3364 38.0274 88.3621 38.1172V38.1429H86.8273V38.1172Z" fill="#ABC337"/>
<path id="Vector_14" d="M101 30.3489L100.942 30.3746C100.608 30.0665 100.206 29.8206 99.7347 29.6366C99.268 29.4523 98.7542 29.3603 98.1934 29.3603C97.654 29.3603 97.1595 29.4458 96.71 29.6173C96.2604 29.7842 95.8732 30.028 95.5477 30.3489C95.2268 30.6701 94.9762 31.0637 94.7965 31.5304C94.6168 31.9968 94.5266 32.5276 94.5266 33.1223C94.5266 33.7772 94.6122 34.3894 94.7837 34.9584C94.9548 35.5235 95.2097 36.0137 95.5477 36.4287C95.886 36.8437 96.3078 37.1713 96.8126 37.4109C97.3221 37.6462 97.915 37.7639 98.5917 37.7639C98.8355 37.7639 99.0798 37.7382 99.3236 37.6868C99.5675 37.6355 99.801 37.5606 100.023 37.4622C100.251 37.3596 100.462 37.2376 100.659 37.0964C100.861 36.951 101.042 36.7859 101.205 36.6019L101.276 36.6469L100.762 37.9567C100.441 38.0808 100.085 38.1749 99.6962 38.2391C99.3108 38.3075 98.9211 38.3418 98.5275 38.3418C97.7353 38.3418 97.0098 38.2284 96.3506 38.0016C95.6953 37.7703 95.1302 37.4451 94.6553 37.0258C94.1844 36.6062 93.8161 36.1035 93.5508 35.5171C93.2895 34.9263 93.159 34.2717 93.159 33.5526C93.159 33.1458 93.2103 32.7458 93.313 32.3522C93.42 31.9582 93.5743 31.5839 93.7754 31.2285C93.9765 30.8734 94.225 30.5482 94.5202 30.2527C94.8158 29.9532 95.1516 29.6943 95.5284 29.4758C95.9096 29.2576 96.3271 29.0886 96.7805 28.9688C97.2387 28.8448 97.7332 28.7827 98.264 28.7827C99.0904 28.7827 99.8566 28.9089 100.563 29.1613L101 30.3489Z" fill="#ABC337"/>
<path id="Vector_15" d="M112.237 38.1428V38.1171C112.246 38.0957 112.252 38.0636 112.257 38.0208C112.261 37.9781 112.263 37.9395 112.263 37.9053C112.263 37.7723 112.244 37.6269 112.205 37.4686C112.171 37.306 112.102 37.1049 112 36.865L111.223 35.1191C110.983 35.1105 110.664 35.1063 110.266 35.1063C109.868 35.1063 109.437 35.1063 108.975 35.1063C108.637 35.1063 108.309 35.1063 107.993 35.1063C107.68 35.1063 107.398 35.1105 107.145 35.1191L106.407 36.8136C106.342 36.9723 106.274 37.1456 106.201 37.3338C106.128 37.5221 106.092 37.7124 106.092 37.9053C106.092 37.9609 106.096 38.008 106.105 38.0465C106.113 38.0807 106.122 38.1043 106.13 38.1171V38.1428H104.82V38.1171C104.897 38.0358 104.994 37.8925 105.11 37.6868C105.225 37.4771 105.351 37.2162 105.488 36.9038L109.168 28.7441H109.682L113.168 36.589C113.25 36.773 113.333 36.953 113.419 37.1285C113.509 37.2996 113.592 37.4536 113.669 37.5905C113.746 37.7274 113.815 37.8433 113.875 37.9374C113.935 38.0315 113.976 38.0914 113.997 38.1171V38.1428H112.237ZM108.076 34.554C108.324 34.554 108.579 34.554 108.84 34.554C109.102 34.5497 109.356 34.5476 109.605 34.5476C109.857 34.5433 110.099 34.5412 110.33 34.5412C110.561 34.5369 110.771 34.5326 110.959 34.5283L109.155 30.4515L107.383 34.554H108.076Z" fill="#ABC337"/>
<path id="Vector_16" d="M121.767 36.4191C121.767 37.4595 120.924 38.3026 119.883 38.3026C118.842 38.3026 117.999 37.4595 117.999 36.4191C117.999 35.3788 118.842 34.5356 119.883 34.5356C120.924 34.5356 121.767 35.3788 121.767 36.4191Z" fill="#ABC337"/>
</g>
</svg>
